#!OML:ASF H:\Terrain\Patient Classification 1\Walking\liu\liu.ASF
:FULLY-SPECIFIED
:DEGREES
49
root 8.05771 16.372 -23.5401 7.33803 -0.094227 1.26969
lowerback -2.74095 -0.329716 -3.52325
upperback -1.1369 -0.359827 1.59458
thorax 0.400668 -0.169215 3.60728
lowerneck -24.1998 -5.46291 -12.7416
upperneck 21.7628 -7.00744 14.6565
head 12.2261 -2.3727 6.51678
rclavicle 2.01269e-015 -3.57812e-015
rhumerus -46.1814 14.9164 -89.4563
rradius 33.4946
rwrist -19.0891
rhand -30.054 -26.411
rfingers 7.12502
rthumb -3.36965 -56.3641
lclavicle 2.01269e-015 -3.57812e-015
lhumerus -29.716 -10.3225 91.6197
lradius 30.6995
lwrist 6.90445
lhand -12.6437 -24.5926
lfingers 7.12502
lthumb 13.4366 4.95408
rfemur -31.0541 -3.67638 21.2644
rtibia 64.7557
rfoot -13.1404 -10.3791
rtoes -12.3697
lfemur -16.2637 0.882511 -26.8971
ltibia 28.4887
lfoot -17.9985 7.55961
ltoes -3.59207
50
root 8.06551 16.3577 -23.3305 7.25039 0.165405 1.32887
lowerback -2.74071 -0.488974 -3.57474
upperback -1.06389 -0.570865 1.64181
thorax 0.495188 -0.277976 3.67821
lowerneck -23.4281 -5.2902 -13.173
upperneck 20.9912 -6.76935 15.2522
head 11.786 -2.26176 6.83103
rclavicle -4.57205e-015 2.78299e-015
rhumerus -46.8605 15.0469 -89.4614
rradius 33.262
rwrist -18.7272
rhand -29.1207 -29.1784
rfingers 7.12502
rthumb -2.46832 -59.1439
lclavicle -4.57205e-015 2.78299e-015
lhumerus -29.0084 -10.9521 91.7196
lradius 31.9722
lwrist 7.95598
lhand -12.939 -24.5861
lfingers 7.12502
lthumb 13.152 4.97909
rfemur -32.1978 -3.48069 21.3421
rtibia 63.2447
rfoot -13.8311 -10.3523
rtoes -14.2402
lfemur -15.0634 0.538048 -26.966
ltibia 27.9711
lfoot -18.3877 7.60732
ltoes -3.79835
51
root 8.07119 16.3511 -23.1188 7.09929 0.328171 1.44721
lowerback -2.67586 -0.607543 -3.63026
upperback -0.930831 -0.728299 1.5649
thorax 0.609556 -0.361536 3.6246
lowerneck -23.3488 -5.21792 -13.1879
upperneck 20.8927 -6.71911 15.4701
head 11.7361 -2.21802 6.92507
rclavicle -3.57812e-015 2.78299e-015
rhumerus -47.3184 15.0022 -89.5428
rradius 32.8252
rwrist -18.4428
rhand -29.0532 -27.9071
rfingers 7.12502
rthumb -2.4031 -57.8733
lclavicle -3.57812e-015 2.78299e-015
lhumerus -28.208 -11.7113 91.6088
lradius 33.1654
lwrist 8.88457
lhand -13.6585 -24.8855
lfingers 7.12502
lthumb 12.4583 4.72318
rfemur -33.1568 -3.12414 21.1998
rtibia 61.5269
rfoot -14.9753 -10.2954
rtoes -16.9668
lfemur -13.6616 0.22811 -27.1089
ltibia 27.245
lfoot -18.7566 7.97339
ltoes -2.80151
52
root 8.07161 16.3547 -22.903 7.02867 0.509501 1.7305
lowerback -2.69023 -0.739554 -3.96278
upperback -0.850667 -0.894413 1.54452
thorax 0.719413 -0.448556 3.78501
lowerneck -23.238 -5.17133 -13.2706
upperneck 20.7956 -6.62484 15.4744
head 11.6643 -2.18643 6.95174
rclavicle 3.926e-015 9.93923e-015
rhumerus -47.8093 15.0044 -89.471
rradius 32.4569
rwrist -18.1006
rhand -29.0024 -26.5737
rfingers 7.12502
rthumb -2.354 -56.5405
lclavicle 3.926e-015 9.93923e-015
lhumerus -27.3201 -12.3773 91.6218
lradius 34.1396
lwrist 9.8008
lhand -14.0763 -25.3075
lfingers 7.12502
lthumb 12.0555 4.32527
rfemur -34.0974 -2.77923 20.8356
rtibia 59.5722
rfoot -15.5182 -10.2897
rtoes -17.8395
lfemur -12.2479 -0.069223 -27.3989
ltibia 26.3489
lfoot -19.0827 8.17078
ltoes -1.95395
53
root 8.07106 16.3517 -22.6849 6.97024 0.756052 1.90003
lowerback -2.70782 -0.773252 -4.12559
upperback -0.824142 -0.934146 1.55053
thorax 0.762893 -0.470042 3.88145
lowerneck -23.1488 -5.32172 -13.5234
upperneck 20.721 -6.74796 15.4659
head 11.6496 -2.26766 6.96648
rclavicle -3.08116e-015 -6.36111e-015
rhumerus -48.5159 14.7573 -89.2752
rradius 32.3585
rwrist -17.8928
rhand -28.9846 -27.4429
rfingers 7.12502
rthumb -2.33683 -57.4099
lclavicle -3.08116e-015 -6.36111e-015
lhumerus -26.4117 -13.1878 91.7894
lradius 34.885
lwrist 10.7321
lhand -14.3955 -26.0708
lfingers 7.12502
lthumb 11.7478 3.57979
rfemur -34.8744 -2.35494 20.5984
rtibia 57.3605
rfoot -15.9443 -9.27526
rtoes -16.5935
lfemur -10.8119 -0.27045 -27.5446
ltibia 25.279
lfoot -19.3646 7.99484
ltoes -2.58419
54
root 8.07137 16.3466 -22.4659 6.93565 0.954272 1.88513
lowerback -2.64132 -0.753955 -4.11985
upperback -0.848384 -0.911616 1.57685
thorax 0.698814 -0.45679 3.90724
lowerneck -23.3131 -5.55763 -13.6506
upperneck 20.9308 -7.0245 15.3947
head 11.8116 -2.40486 6.92367
rclavicle -5.06901e-015 -8.74653e-015
rhumerus -49.4167 14.5316 -89.2097
rradius 32.3883
rwrist -17.6989
rhand -29.2711 -27.7321
rfingers 7.12502
rthumb -2.61348 -57.6958
lclavicle -5.06901e-015 -8.74653e-015
lhumerus -25.7251 -14.0727 91.9134
lradius 35.8374
lwrist 11.6397
lhand -15.052 -27.0395
lfingers 7.12502
lthumb 11.1146 2.6462
rfemur -35.5422 -1.55761 20.4309
rtibia 54.9097
rfoot -16.8572 -7.97367
rtoes -16.7045
lfemur -9.42538 -0.212952 -27.5022
ltibia 24.1794
lfoot -19.3869 7.81347
ltoes -3.37456
55
root 8.07018 16.357 -22.2454 7.05946 1.03274 1.80385
lowerback -2.81977 -0.823843 -4.13603
upperback -0.825336 -0.997663 1.62228
thorax 0.83204 -0.503488 3.95799
lowerneck -23.264 -5.49483 -13.5826
upperneck 20.8171 -6.95215 15.3949
head 11.7434 -2.36854 6.91793
rclavicle -1.34677e-014 -8.74653e-015
rhumerus -50.1421 14.5633 -89.2671
rradius 32.4334
rwrist -17.5374
rhand -29.2429 -27.2672
rfingers 7.12502
rthumb -2.5863 -57.2313
lclavicle -1.34677e-014 -8.74653e-015
lhumerus -24.9612 -14.6863 91.7295
lradius 37.0667
lwrist 12.9075
lhand -15.38 -27.2416
lfingers 7.12502
lthumb 10.7982 2.4608
rfemur -36.3525 -0.666273 20.2589
rtibia 52.2293
rfoot -17.3664 -7.38601
rtoes -18.3014
lfemur -8.19512 0.050534 -27.3878
ltibia 23.1569
lfoot -19.3762 7.68158
ltoes -3.66321
56
root 8.06697 16.3567 -22.0267 7.13343 1.18025 1.6507
lowerback -2.96796 -0.925435 -4.05822
upperback -0.782479 -1.1298 1.66074
thorax 0.971651 -0.573649 3.94624
lowerneck -23.1556 -5.38853 -13.6179
upperneck 20.6227 -6.83958 15.6198
head 11.6419 -2.29894 7.02406
rclavicle -7.25564e-015 8.34896e-015
rhumerus -50.8266 14.4133 -89.2189
rradius 32.5356
rwrist -17.3898
rhand -29.119 -27.169
rfingers 7.12502
rthumb -2.46659 -57.1345
lclavicle -7.25564e-015 8.34896e-015
lhumerus -24.113 -15.0199 91.3755
lradius 38.5036
lwrist 14.5673
lhand -14.7963 -26.2846
lfingers 7.12502
lthumb 11.3612 3.38761
rfemur -36.9852 0.183686 20.0811
rtibia 49.4156
rfoot -17.7089 -6.85747
rtoes -16.8475
lfemur -6.82088 0.241027 -27.1701
ltibia 22.0121
lfoot -19.5159 7.4734
ltoes -4.1148
57
root 8.06466 16.3352 -21.8156 6.97862 1.7105 1.72641
lowerback -2.70502 -1.01313 -4.13125
upperback -0.778422 -1.25463 1.64828
thorax 0.842073 -0.633293 3.97364
lowerneck -22.9713 -5.49494 -13.8362
upperneck 20.4439 -6.98703 15.8805
head 11.5878 -2.36086 7.13125
rclavicle 9.64106e-015 7.55382e-015
rhumerus -51.6001 13.9126 -89.0011
rradius 32.5853
rwrist -17.3078
rhand -29.5689 -26.2102
rfingers 7.12502
rthumb -2.90109 -56.1703
lclavicle 9.64106e-015 7.55382e-015
lhumerus -23.3286 -15.4756 91.264
lradius 39.7315
lwrist 15.8559
lhand -14.5746 -25.8377
lfingers 7.12502
lthumb 11.5751 3.82265
rfemur -37.2668 0.623712 19.6001
rtibia 46.5689
rfoot -17.9689 -6.25645
rtoes -14.4128
lfemur -5.14186 -0.107417 -27.2058
ltibia 20.6322
lfoot -19.4692 7.48598
ltoes -3.87369
58
root 8.06766 16.3227 -21.6021 6.9418 2.4431 2.2636
lowerback -2.55361 -1.21625 -4.56042
upperback -0.763987 -1.51843 1.42622
thorax 0.803221 -0.76502 3.9786
lowerneck -22.9204 -5.55105 -13.5883
upperneck 20.2306 -7.13698 15.8756
head 11.5159 -2.41128 7.04604
rclavicle -1.78161e-014 7.95139e-016
rhumerus -52.2328 13.4164 -88.9806
rradius 32.5194
rwrist -17.2544
rhand -30.0183 -25.1209
rfingers 7.12502
rthumb -3.3351 -55.0746
lclavicle -1.78161e-014 7.95139e-016
lhumerus -22.4404 -16.1465 90.997
lradius 40.617
lwrist 16.8506
lhand -15.1648 -26.1393
lfingers 7.12502
lthumb 11.0058 3.55215
rfemur -37.6578 0.5273 18.6896
rtibia 43.7645
rfoot -18.1762 -5.68727
rtoes -15.4803
lfemur -3.44755 -0.833414 -27.7666
ltibia 19.0281
lfoot -19.1579 7.59331
ltoes -3.66356
59
root 8.06746 16.3191 -21.3768 7.15406 2.69522 2.65946
lowerback -2.79055 -1.33037 -4.97433
upperback -0.842989 -1.64806 1.27929
thorax 0.874928 -0.830417 4.05081
lowerneck -22.8052 -5.54118 -13.4342
upperneck 20.1404 -7.17228 15.8398
head 11.4585 -2.42368 6.99208
rclavicle 1.48343e-014 -1.19271e-014
rhumerus -53.0289 13.1127 -89.0013
rradius 32.4632
rwrist -17.1853
rhand -29.8521 -25.8614
rfingers 7.12502
rthumb -3.17459 -55.8175
lclavicle 1.48343e-014 -1.19271e-014
lhumerus -21.6727 -16.586 90.7444
lradius 41.474
lwrist 17.6841
lhand -15.4667 -26.0763
lfingers 7.12502
lthumb 10.7146 3.63045
rfemur -38.3194 0.936785 17.9124
rtibia 41.0825
rfoot -18.8041 -5.18031
rtoes -17.8135
lfemur -1.7116 -1.31376 -28.1756
ltibia 16.9608
lfoot -18.6169 7.80773
ltoes -4.43105
